<svg width="32" height="32" viewBox="0 0 32 32" fill="none" xmlns="http://www.w3.org/2000/svg">
<g clip-path="url(#clip0_6_9766)">
<g filter="url(#filter0_i_6_9766)">
<path d="M0 8C0 3.58172 3.58172 0 8 0H24C28.4183 0 32 3.58172 32 8V24C32 28.4183 28.4183 32 24 32H8C3.58172 32 0 28.4183 0 24V8Z" fill="#2C2F4B"/>
<path d="M0.5 8C0.5 3.85786 3.85786 0.5 8 0.5H24C28.1421 0.5 31.5 3.85786 31.5 8V24C31.5 28.1421 28.1421 31.5 24 31.5H8C3.85786 31.5 0.5 28.1421 0.5 24V8Z" stroke="url(#paint0_linear_6_9766)" stroke-opacity="0.05"/>
<path fill-rule="evenodd" clip-rule="evenodd" d="M21.3346 11.3333H10.668C10.2998 11.3333 10.0013 11.6318 10.0013 12V20C10.0013 20.3682 10.2998 20.6667 10.668 20.6667H21.3346C21.7028 20.6667 22.0013 20.3682 22.0013 20V12C22.0013 11.6318 21.7028 11.3333 21.3346 11.3333ZM10.668 10C9.5634 10 8.66797 10.8954 8.66797 12V20C8.66797 21.1046 9.5634 22 10.668 22H21.3346C22.4392 22 23.3346 21.1046 23.3346 20V12C23.3346 10.8954 22.4392 10 21.3346 10H10.668Z" fill="white"/>
<path fill-rule="evenodd" clip-rule="evenodd" d="M9.50219 10.4997C9.7379 10.2168 10.1583 10.1786 10.4411 10.4143L15.5754 15.4433C15.8227 15.6494 16.1818 15.6494 16.429 15.4433L21.563 10.4143C21.8459 10.1786 22.2663 10.2168 22.502 10.4996C22.7377 10.7825 22.6995 11.2029 22.4166 11.4386L17.2826 16.4676C16.5409 17.0857 15.4636 17.0857 14.7218 16.4676L9.58755 11.4386C9.3047 11.2029 9.26648 10.7825 9.50219 10.4997Z" fill="white"/>
</g>
</g>
<defs>
<filter id="filter0_i_6_9766" x="0" y="0" width="32" height="37" filterUnits="userSpaceOnUse" color-interpolation-filters="sRGB">
<feFlood flood-opacity="0" result="BackgroundImageFix"/>
<feBlend mode="normal" in="SourceGraphic" in2="BackgroundImageFix" result="shape"/>
<feColorMatrix in="SourceAlpha" type="matrix" values="0 0 0 0 0 0 0 0 0 0 0 0 0 0 0 0 0 0 127 0" result="hardAlpha"/>
<feOffset dy="5"/>
<feGaussianBlur stdDeviation="15"/>
<feComposite in2="hardAlpha" operator="arithmetic" k2="-1" k3="1"/>
<feColorMatrix type="matrix" values="0 0 0 0 1 0 0 0 0 1 0 0 0 0 1 0 0 0 0.05 0"/>
<feBlend mode="normal" in2="shape" result="effect1_innerShadow_6_9766"/>
</filter>
<linearGradient id="paint0_linear_6_9766" x1="16" y1="0" x2="16" y2="32" gradientUnits="userSpaceOnUse">
<stop stop-color="white"/>
<stop offset="1" stop-color="white" stop-opacity="0"/>
</linearGradient>
<clipPath id="clip0_6_9766">
<rect width="32" height="32" rx="8" fill="white"/>
</clipPath>
</defs>
</svg>
