<svg width="12" height="16" viewBox="0 0 12 16" fill="none" xmlns="http://www.w3.org/2000/svg">
<path fill-rule="evenodd" clip-rule="evenodd" d="M6 8.66536C3.42 8.66536 1.33333 10.752 1.33333 13.332V14.6654C1.33333 15.032 1.03333 15.332 0.666667 15.332C0.293333 15.332 0 15.032 0 14.6654V13.332C0 10.012 2.68 7.33203 6 7.33203C9.31333 7.33203 12 10.012 12 13.332V14.6654C12 15.032 11.7 15.332 11.3333 15.332C10.96 15.332 10.6667 15.032 10.6667 14.6654V13.332C10.6667 10.752 8.57333 8.66536 6 8.66536Z" fill="#FFFFFF99"/>
<path fill-rule="evenodd" clip-rule="evenodd" d="M6 7.33464C7.46667 7.33464 8.66667 6.13464 8.66667 4.66797C8.66667 3.19464 7.46667 2.0013 6 2.0013C4.52667 2.0013 3.33333 3.19464 3.33333 4.66797C3.33333 6.13464 4.52667 7.33464 6 7.33464ZM6 8.66797C8.20667 8.66797 10 6.87464 10 4.66797C10 2.45464 8.20667 0.667969 6 0.667969C3.78667 0.667969 2 2.45464 2 4.66797C2 6.87464 3.78667 8.66797 6 8.66797Z" fill="#FFFFFF99"/>
</svg>
