<svg width="32" height="32" viewBox="0 0 32 32" fill="none" xmlns="http://www.w3.org/2000/svg">
<g filter="url(#filter0_i_114_46)">
<path d="M0 8C0 3.58172 3.58172 0 8 0H24C28.4183 0 32 3.58172 32 8V24C32 28.4183 28.4183 32 24 32H8C3.58172 32 0 28.4183 0 24V8Z" fill="#2C2F4B"/>
<path d="M0.5 8C0.5 3.85786 3.85786 0.5 8 0.5H24C28.1421 0.5 31.5 3.85786 31.5 8V24C31.5 28.1421 28.1421 31.5 24 31.5H8C3.85786 31.5 0.5 28.1421 0.5 24V8Z" stroke="url(#paint0_linear_114_46)" stroke-opacity="0.05"/>
<g clip-path="url(#clip0_114_46)">
<path d="M16.0023 11.8932C13.7309 11.8932 11.8988 13.7254 11.8988 15.9968C11.8988 18.2682 13.7309 20.1004 16.0023 20.1004C18.2738 20.1004 20.1059 18.2682 20.1059 15.9968C20.1059 13.7254 18.2738 11.8932 16.0023 11.8932ZM16.0023 18.6647C14.5345 18.6647 13.3345 17.4682 13.3345 15.9968C13.3345 14.5254 14.5309 13.329 16.0023 13.329C17.4738 13.329 18.6702 14.5254 18.6702 15.9968C18.6702 17.4682 17.4702 18.6647 16.0023 18.6647ZM21.2309 11.7254C21.2309 12.2575 20.8023 12.6825 20.2738 12.6825C19.7416 12.6825 19.3166 12.254 19.3166 11.7254C19.3166 11.1968 19.7452 10.7682 20.2738 10.7682C20.8023 10.7682 21.2309 11.1968 21.2309 11.7254ZM23.9488 12.6968C23.8881 11.4147 23.5952 10.279 22.6559 9.34325C21.7202 8.40753 20.5845 8.11468 19.3023 8.05039C17.9809 7.97539 14.0202 7.97539 12.6988 8.05039C11.4202 8.1111 10.2845 8.40396 9.3452 9.33968C8.40592 10.2754 8.11663 11.4111 8.05234 12.6932C7.97734 14.0147 7.97734 17.9754 8.05234 19.2968C8.11306 20.579 8.40592 21.7147 9.3452 22.6504C10.2845 23.5861 11.4166 23.879 12.6988 23.9432C14.0202 24.0182 17.9809 24.0182 19.3023 23.9432C20.5845 23.8825 21.7202 23.5897 22.6559 22.6504C23.5916 21.7147 23.8845 20.579 23.9488 19.2968C24.0238 17.9754 24.0238 14.0182 23.9488 12.6968ZM22.2416 20.7147C21.9631 21.4147 21.4238 21.954 20.7202 22.2361C19.6666 22.654 17.1666 22.5575 16.0023 22.5575C14.8381 22.5575 12.3345 22.6504 11.2845 22.2361C10.5845 21.9575 10.0452 21.4182 9.76306 20.7147C9.3452 19.6611 9.44163 17.1611 9.44163 15.9968C9.44163 14.8325 9.34877 12.329 9.76306 11.279C10.0416 10.579 10.5809 10.0397 11.2845 9.75753C12.3381 9.33968 14.8381 9.4361 16.0023 9.4361C17.1666 9.4361 19.6702 9.34325 20.7202 9.75753C21.4202 10.0361 21.9595 10.5754 22.2416 11.279C22.6595 12.3325 22.5631 14.8325 22.5631 15.9968C22.5631 17.1611 22.6595 19.6647 22.2416 20.7147Z" fill="white"/>
</g>
</g>
<defs>
<filter id="filter0_i_114_46" x="0" y="0" width="32" height="37" filterUnits="userSpaceOnUse" color-interpolation-filters="sRGB">
<feFlood flood-opacity="0" result="BackgroundImageFix"/>
<feBlend mode="normal" in="SourceGraphic" in2="BackgroundImageFix" result="shape"/>
<feColorMatrix in="SourceAlpha" type="matrix" values="0 0 0 0 0 0 0 0 0 0 0 0 0 0 0 0 0 0 127 0" result="hardAlpha"/>
<feOffset dy="5"/>
<feGaussianBlur stdDeviation="15"/>
<feComposite in2="hardAlpha" operator="arithmetic" k2="-1" k3="1"/>
<feColorMatrix type="matrix" values="0 0 0 0 1 0 0 0 0 1 0 0 0 0 1 0 0 0 0.05 0"/>
<feBlend mode="normal" in2="shape" result="effect1_innerShadow_114_46"/>
</filter>
<linearGradient id="paint0_linear_114_46" x1="16" y1="0" x2="16" y2="32" gradientUnits="userSpaceOnUse">
<stop stop-color="white"/>
<stop offset="1" stop-color="white" stop-opacity="0"/>
</linearGradient>
<clipPath id="clip0_114_46">
<rect width="16" height="16" fill="white" transform="translate(8 8)"/>
</clipPath>
</defs>
</svg>
