<svg width="12" height="16" viewBox="0 0 12 16" fill="none" xmlns="http://www.w3.org/2000/svg">
<path fill-rule="evenodd" clip-rule="evenodd" d="M9.09433 10.831C10.0282 9.5347 10.6667 8.11004 10.6667 6.66797C10.6667 4.09064 8.57733 2.0013 6 2.0013C3.42267 2.0013 1.33333 4.09064 1.33333 6.66797C1.33333 8.11004 1.97179 9.5347 2.90564 10.831C3.83245 12.1174 4.97207 13.1682 5.7846 13.8336C5.91787 13.9428 6.08213 13.9428 6.2154 13.8336C7.02793 13.1682 8.16753 12.1174 9.09433 10.831ZM7.06027 14.8651C8.78307 13.454 12 10.3291 12 6.66797C12 3.35426 9.31373 0.667969 6 0.667969C2.68629 0.667969 0 3.35426 0 6.66797C0 10.3291 3.21691 13.454 4.93973 14.8651C5.5644 15.3767 6.4356 15.3767 7.06027 14.8651Z" fill="#FFFFFF99"/>
<path fill-rule="evenodd" clip-rule="evenodd" d="M5.9987 5.33333C5.2623 5.33333 4.66536 5.93029 4.66536 6.66667C4.66536 7.40307 5.2623 8 5.9987 8C6.7351 8 7.33203 7.40307 7.33203 6.66667C7.33203 5.93029 6.7351 5.33333 5.9987 5.33333ZM3.33203 6.66667C3.33203 5.19391 4.52594 4 5.9987 4C7.47143 4 8.66536 5.19391 8.66536 6.66667C8.66536 8.1394 7.47143 9.33333 5.9987 9.33333C4.52594 9.33333 3.33203 8.1394 3.33203 6.66667Z" fill="#FFFFFF99"/>
</svg>