<svg width="12" height="16" viewBox="0 0 12 16" fill="none" xmlns="http://www.w3.org/2000/svg">
<path fill-rule="evenodd" clip-rule="evenodd" d="M10.5238 13.5587C10.5979 12.2606 10.6666 10.4069 10.6666 7.9974C10.6666 5.87153 10.6131 4.34507 10.5503 3.28631C10.5101 2.60799 10.0384 2.13683 9.3738 2.09414C8.53573 2.0403 7.42173 1.9974 5.99993 1.9974C4.57823 1.9974 3.46428 2.0403 2.62622 2.09413C1.96158 2.13682 1.48984 2.60802 1.44963 3.2864C1.38686 4.34516 1.33335 5.8716 1.33333 7.9974C1.33332 10.4069 1.40206 12.2606 1.47613 13.5587L4.8466 11.1795C5.53807 10.6914 6.46186 10.6914 7.15333 11.1795L10.5238 13.5587ZM2.54075 0.763536C1.1978 0.849796 0.198267 1.86413 0.118627 3.20749C0.0540666 4.2966 1.33356e-05 5.8497 2.28052e-09 7.9974C-1.99977e-05 11.3478 0.131513 13.6458 0.229327 14.8915C0.268733 15.3933 0.830153 15.6467 1.2414 15.3564L5.61553 12.2688C5.846 12.1061 6.15393 12.1061 6.3844 12.2688L10.7585 15.3564C11.1698 15.6467 11.7312 15.3933 11.7706 14.8915C11.8684 13.6458 11.9999 11.3478 11.9999 7.9974C11.9999 5.84964 11.9459 4.29651 11.8813 3.20739C11.8017 1.86408 10.8022 0.849803 9.45926 0.763543C8.59106 0.707776 7.44853 0.664062 5.99993 0.664062C4.55147 0.664062 3.40895 0.707776 2.54075 0.763536Z" fill="#FFFFFF99"/>
</svg>
