<svg width="32" height="32" viewBox="0 0 32 32" fill="none" xmlns="http://www.w3.org/2000/svg">
<g filter="url(#filter0_i_114_77)">
<path d="M0 8C0 3.58172 3.58172 0 8 0H24C28.4183 0 32 3.58172 32 8V24C32 28.4183 28.4183 32 24 32H8C3.58172 32 0 28.4183 0 24V8Z" fill="#2C2F4B"/>
<path d="M0.5 8C0.5 3.85786 3.85786 0.5 8 0.5H24C28.1421 0.5 31.5 3.85786 31.5 8V24C31.5 28.1421 28.1421 31.5 24 31.5H8C3.85786 31.5 0.5 28.1421 0.5 24V8Z" stroke="url(#paint0_linear_114_77)" stroke-opacity="0.05"/>
<path d="M23.2675 12.3213C23.093 11.6644 22.5789 11.147 21.9262 10.9714C20.7432 10.6523 15.9993 10.6523 15.9993 10.6523C15.9993 10.6523 11.2554 10.6523 10.0723 10.9714C9.41959 11.147 8.90553 11.6644 8.73106 12.3213C8.41406 13.5121 8.41406 15.9965 8.41406 15.9965C8.41406 15.9965 8.41406 18.4808 8.73106 19.6716C8.90553 20.3285 9.41959 20.8244 10.0723 21C11.2554 21.319 15.9993 21.319 15.9993 21.319C15.9993 21.319 20.7431 21.319 21.9262 21C22.5789 20.8244 23.093 20.3285 23.2675 19.6716C23.5845 18.4808 23.5845 15.9965 23.5845 15.9965C23.5845 15.9965 23.5845 13.5121 23.2675 12.3213ZM14.4477 18.2521V13.7408L18.4127 15.9965L14.4477 18.2521Z" fill="white"/>
</g>
<defs>
<filter id="filter0_i_114_77" x="0" y="0" width="32" height="37" filterUnits="userSpaceOnUse" color-interpolation-filters="sRGB">
<feFlood flood-opacity="0" result="BackgroundImageFix"/>
<feBlend mode="normal" in="SourceGraphic" in2="BackgroundImageFix" result="shape"/>
<feColorMatrix in="SourceAlpha" type="matrix" values="0 0 0 0 0 0 0 0 0 0 0 0 0 0 0 0 0 0 127 0" result="hardAlpha"/>
<feOffset dy="5"/>
<feGaussianBlur stdDeviation="15"/>
<feComposite in2="hardAlpha" operator="arithmetic" k2="-1" k3="1"/>
<feColorMatrix type="matrix" values="0 0 0 0 1 0 0 0 0 1 0 0 0 0 1 0 0 0 0.05 0"/>
<feBlend mode="normal" in2="shape" result="effect1_innerShadow_114_77"/>
</filter>
<linearGradient id="paint0_linear_114_77" x1="16" y1="0" x2="16" y2="32" gradientUnits="userSpaceOnUse">
<stop stop-color="white"/>
<stop offset="1" stop-color="white" stop-opacity="0"/>
</linearGradient>
</defs>
</svg>
